<?xml version="1.0" encoding="UTF-8"?>
<svg id="Layer_1" xmlns="http://www.w3.org/2000/svg" version="1.1" viewBox="0 0 100 100">
  <!-- Generator: Adobe Illustrator 29.5.1, SVG Export Plug-In . SVG Version: 2.1.0 Build 141)  -->
  <defs>
    <style>
      .st0 {
        fill: #e95420;
      }

      .st1 {
        fill: #fff;
      }
    </style>
  </defs>
  <circle class="st0" cx="50" cy="50" r="50"/>
  <g>
    <path class="st1" d="M21.4,58.5c2,0,4-.6,5.6-1.7,1.7-1.1,3-2.7,3.7-4.6s1-3.9.6-5.9-1.3-3.8-2.8-5.3-3.2-2.4-5.3-2.8-4-.2-5.9.6-3.4,2.1-4.6,3.7c-1.1,1.7-1.7,3.6-1.7,5.6s.3,2.7.8,3.9,1.2,2.4,2.2,3.3c2,1.9,4.7,3.1,7.4,3.1h0Z"/>
    <path class="st1" d="M64.1,36c2,0,4-.6,5.6-1.7,1.7-1.1,3-2.7,3.7-4.6s1-3.9.6-5.9-1.3-3.8-2.8-5.3-3.2-2.4-5.3-2.8-4-.2-5.9.6-3.4,2.1-4.6,3.7c-1.1,1.7-1.7,3.6-1.7,5.6s.3,2.7.8,3.9c.5,1.2,1.2,2.4,2.2,3.3,1,1,2.1,1.7,3.3,2.2,1.3.6,2.7.9,4,.9h.1Z"/>
    <path class="st1" d="M44.5,74.6c-7.4-1.6-13.6-6.3-17-13-2.8,1.2-5.8,1.6-8.8,1.1,4.2,10.3,13.1,17.8,24.1,20.2,2.4.5,4.8.8,7.3.8-1.9-2.5-3-5.4-3.1-8.6-.9,0-1.7-.2-2.5-.4h0Z"/>
    <path class="st1" d="M61.8,84.9c2,0,4-.6,5.6-1.7,1.7-1.1,3-2.7,3.7-4.6s1-3.9.6-5.9-1.3-3.8-2.8-5.3-3.2-2.4-5.3-2.8-4-.2-5.9.6c-1.9.8-3.4,2.1-4.6,3.7-1.1,1.7-1.7,3.6-1.7,5.6s1.1,5.3,3,7.3c2,1.9,4.6,3.1,7.4,3.1Z"/>
    <path class="st1" d="M76,70.9c3.2-4,5.4-8.8,6.5-13.8,1-4.4,1-8.9.2-13.3-.9-4.4-2.6-8.6-5-12.3-1.1,2.8-3.2,5.2-5.7,6.8,2,3.8,3.1,8.2,2.9,12.6s-1.4,8.6-3.7,12.3c2.3,2,4,4.7,4.9,7.7h-.1Z"/>
    <path class="st1" d="M20.6,33.6h.8c1.1,0,2.1,0,3.2.3,1.6.4,3.2,1,4.7,1.9,2.3-3.2,5.3-5.9,8.8-7.8s7.4-2.9,11.4-3c0-.8,0-1.5.3-2.3.5-2.2,1.4-4.2,2.8-6-12.9-1-25.4,5.7-31.8,16.9h-.2Z"/>
  </g>
</svg>